<svg width="512" height="512" viewBox="0 0 200 200" fill="none" xmlns="http://www.w3.org/2000/svg">
  <defs>
    <linearGradient id="organicFlow" x1="20%" y1="0%" x2="80%" y2="100%">
      <stop offset="0%" style="stop-color:#60a5fa;stop-opacity:1" /> 
      <stop offset="50%" style="stop-color:#2563eb;stop-opacity:1" /> 
      <stop offset="100%" style="stop-color:#0f172a;stop-opacity:1" /> 
    </linearGradient>
  </defs>

  <!-- Validated Path Data without comments inside the string -->
  <path d="M 100 15 C 108 15 112 22 114 26 C 125 60 140 75 174 86 C 178 88 185 92 185 100 C 185 108 178 112 174 114 C 140 125 125 140 114 174 C 112 178 108 185 100 185 C 92 185 88 178 86 174 C 75 140 60 125 26 114 C 22 112 15 108 15 100 C 15 92 22 88 26 86 C 60 75 75 60 86 26 C 88 22 92 15 100 15 Z" fill="url(#organicFlow)" />
</svg>
